<svg width="14" height="17" viewBox="0 0 14 17" fill="none" xmlns="http://www.w3.org/2000/svg">
<path d="M1 13.5477H0.5C0.5 13.6257 0.518207 13.7025 0.553169 13.7721L1 13.5477ZM12.8421 13.5477L13.1866 13.9102C13.2859 13.8158 13.3421 13.6848 13.3421 13.5477H12.8421ZM9.9735 4.55263C9.9735 6.23855 8.60679 7.60526 6.92087 7.60526V8.60526C9.15908 8.60526 10.9735 6.79084 10.9735 4.55263H9.9735ZM6.92087 1.5C8.60679 1.5 9.9735 2.86671 9.9735 4.55263H10.9735C10.9735 2.31442 9.15908 0.5 6.92087 0.5V1.5ZM3.86824 4.55263C3.86824 2.86671 5.23495 1.5 6.92087 1.5V0.5C4.68267 0.5 2.86824 2.31442 2.86824 4.55263H3.86824ZM6.92087 7.60526C5.23495 7.60526 3.86824 6.23855 3.86824 4.55263H2.86824C2.86824 6.79084 4.68267 8.60526 6.92087 8.60526V7.60526ZM6.92105 7.60541C3.43122 7.60541 0.5 9.96218 0.5 13.5477H1.5C1.5 10.6209 3.87068 8.60541 6.92105 8.60541V7.60541ZM13.3421 13.5477C13.3421 12.1336 12.5992 10.6512 11.4576 9.53385C10.3095 8.41007 8.70865 7.60541 6.92105 7.60541V8.60541C8.40357 8.60541 9.76325 9.27471 10.7581 10.2485C11.7595 11.2287 12.3421 12.4675 12.3421 13.5477H13.3421ZM0.553169 13.7721C0.680086 14.0249 0.904953 14.2767 1.16935 14.5092C1.44114 14.7482 1.78448 14.9925 2.183 15.2238C2.97989 15.6864 4.02226 16.1113 5.20557 16.335C7.58441 16.7848 10.5457 16.4203 13.1866 13.9102L12.4976 13.1853C10.1284 15.4372 7.51023 15.753 5.39134 15.3524C4.32579 15.151 3.38974 14.768 2.68501 14.359C2.33272 14.1545 2.04446 13.9471 1.82965 13.7582C1.60745 13.5628 1.49071 13.4108 1.44683 13.3234L0.553169 13.7721Z" fill="#233020"/>
</svg>
