<?xml version="1.0" encoding="utf-8"?>
<!-- Generator: Adobe Illustrator 27.1.1, SVG Export Plug-In . SVG Version: 6.00 Build 0)  -->
<svg version="1.1" id="Layer_1" xmlns="http://www.w3.org/2000/svg" xmlns:xlink="http://www.w3.org/1999/xlink" x="0px" y="0px"
	 viewBox="0 0 300 200" style="enable-background:new 0 0 300 200;" xml:space="preserve">
<g>
	<g>
		<path d="M50.8,35.62h-0.26c-1.96-4.68-3.07-5.24-7.66-5.24H41.1v25.29c0,3.15,0.17,4.77,3.07,4.77v0.26h-8.52v-0.26
			c2.9,0,3.07-1.62,3.07-4.77V30.39h-1.79c-4.6,0-5.71,0.55-7.66,5.24H29l0.51-5.92h20.78L50.8,35.62z"/>
		<path d="M70.6,56.28c0,2.73,0.13,4.17,1.87,4.17v0.26H66.6v-0.26c1.75,0,1.87-1.45,1.87-4.17V45.04c0-3.58-1.45-5.37-4.34-5.37
			c-2.34,0-4.6,1.19-6.69,2.94v13.67c0,2.73,0.13,4.17,1.87,4.17v0.26h-5.88v-0.26c1.75,0,1.87-1.45,1.87-4.17V32.77
			c0-2.73-0.72-3.75-2.17-4v-0.26l4.13-1.11h0.17v14.78c2.3-2.43,4.98-4.3,7.84-4.3c3.24,0,5.32,2.3,5.32,6.64V56.28z"/>
		<path d="M93,55.85c-1.36,2.3-3.96,5.37-8.3,5.37c-5.32,0-8.82-4.85-8.82-11.37c0-7.11,4.6-11.97,9.71-11.97
			c4.05,0,7.58,2.98,7.37,8.26H78.43c-0.17,0.89-0.26,1.79-0.26,2.73c0,5.75,2.64,10.73,7.5,10.73c3.24,0,5.71-1.92,7.07-3.92
			L93,55.85z M78.56,45.46h11.58c0.3-4.22-1.32-6.98-4.81-6.98C81.97,38.48,79.5,41.54,78.56,45.46z"/>
		<path d="M42.54,80.79c5.24,0,8.64,2.6,8.64,7.41c0,5.66-4.73,10.22-11.11,10.22c-2.26,0-3.83-0.43-4.64-0.77l-1.92,9.11
			c-0.68,3.15-0.72,4.77,2.21,4.77l-0.04,0.26H27l0.04-0.26c2.9,0,3.41-1.62,4.09-4.77l4.43-20.95c0.68-3.15,0.81-4.77-2.04-4.77
			l0.04-0.26H42.54z M48.63,88.03c0-4.34-2.34-6.56-6.43-6.56h-1.7c-0.98,0-1.75,0.51-1.96,1.53l-2.68,12.6
			c-0.13,0.6-0.21,1.96,3.28,1.96C45.35,97.57,48.63,93.19,48.63,88.03z"/>
		<path d="M53.4,101.06c-0.3,1.32-0.47,2.64-0.47,4c0,3.92,1.45,5.62,3.92,5.62c2.77,0,5.79-2.09,8.35-5.24l0.26,0.17
			c-3.02,4.56-6.26,6.69-9.45,6.69c-3.15,0-5.37-2.09-5.37-6.73c0-7.07,5.19-16.61,13.07-16.61c2.94,0,4.09,1.28,4.09,3.02
			C67.79,95.91,62.08,98.34,53.4,101.06z M53.57,100.3c7.71-2.64,11.84-4.43,11.84-8.18c0-1.36-0.55-2.55-2.39-2.55
			C59.32,89.57,55.19,94.51,53.57,100.3z"/>
		<path d="M89.55,105.92c-2.13,4-4.39,6.39-6.09,6.39s-1.41-2.3-1.02-4l1.32-6.17c-2.64,6.56-6.86,10.18-10.39,10.18
			c-2.64,0-4.17-2.09-4.17-6c0-7.62,5.75-17.33,13.33-17.33c1.83,0,3.28,0.55,4.09,1.79l1.79-1.53h0.26l-3.96,18.57
			c-0.13,0.6-0.47,2.17,0.3,2.17c0.85,0,2.68-1.96,4.34-4.22L89.55,105.92z M85.03,96.13c0.13-0.6,0.21-1.15,0.21-2
			c0-2.55-0.72-4.56-3.32-4.56c-5.41,0-10.35,8.77-10.35,15.88c0,3.41,1.15,5.32,3.15,5.32C78.26,110.77,83.29,104.6,85.03,96.13z"
			/>
		<path d="M112.96,105.92c-2.13,4-4.43,6.39-6,6.39c-1.53,0-1.75-1.45-1.15-4l2.6-11.24c0.77-3.32,1.28-6.22-1.15-6.22
			c-4.26,0-10.22,9.84-12.6,20.95h-2.13l3.88-18.31c0.26-1.19,0.51-2.38-0.26-2.38c-0.64,0-1.83,1.28-3.53,3.49l-0.21-0.17
			c1.96-3.66,3.96-5.45,5.24-5.45c1.45,0,1.53,1.53,1.02,4l-2.34,10.9c3.28-8.86,8.22-14.9,12.22-14.9c3.62,0,2.98,3.96,1.96,8.39
			l-2.38,10.43c-0.26,1.19-0.55,2.39,0.17,2.39c0.64,0,2.09-1.19,4.47-4.43L112.96,105.92z"/>
		<path d="M136.34,105.92c-2.13,4-4.43,6.39-6.13,6.39c-1.45,0-1.53-1.53-1.02-4l2.34-10.9c-3.28,8.86-8.22,14.9-12.22,14.9
			c-3.62,0-2.98-3.96-1.96-8.39l2.38-10.43c0.26-1.19,0.55-2.38-0.17-2.38c-0.68,0-1.87,1.28-3.58,3.49l-0.21-0.17
			c1.96-3.66,3.92-5.45,5.11-5.45c1.53,0,1.75,1.45,1.15,4l-2.6,11.24c-0.77,3.32-1.28,6.22,1.15,6.22c3.7,0,9.88-8.35,12.48-20.48
			l2.09-0.55h0.17l-3.87,18.4c-0.26,1.19-0.51,2.39,0.26,2.39c0.64,0,2.04-1.19,4.43-4.43L136.34,105.92z"/>
		<path d="M145.23,90.84l-3.41,15.93c-0.34,1.62-0.43,3.41,0.89,3.41c1.32,0,3.75-2,6.52-5.71l0.21,0.17
			c-2.43,4.56-6.05,7.67-8.26,7.67c-2,0-2.17-2.47-1.62-5.03l3.53-16.44h-2.26l0.08-0.34l0.64-0.26c1.75-0.68,3.24-2.3,4.77-5.96
			h0.26l-1.11,5.19h7.75l-0.81,1.36H145.23z"/>
		<path d="M177.16,95.7c3.83,0.68,6.81,3.45,6.81,7.07c0,6.17-6.47,9.03-13.37,9.03h-10.13l0.04-0.26c2.9,0,3.41-1.62,4.09-4.77
			l4.43-20.95c0.72-3.24,0.77-4.77-2.04-4.77l0.04-0.26h9.45c5.88,0,9.2,2.55,9.2,6.39c0,4.68-3.83,7.28-8.52,8.43V95.7z
			 M181.29,102.43c0-3.79-2.94-6.43-8.09-6.43h-3.92l-2.64,12.39c-0.3,1.45-0.6,2.73,3.7,2.73
			C176.87,111.11,181.29,108.26,181.29,102.43z M169.41,95.32h3.79c6.05,0,9.75-2.51,9.75-7.92c0-3.62-2.47-5.92-6.77-5.92h-2.21
			c-1.02,0-1.75,0.51-1.96,1.53L169.41,95.32z"/>
		<path d="M208.63,105.92c-2.13,4-4.43,6.39-6.13,6.39c-1.45,0-1.53-1.53-1.02-4l2.34-10.9c-3.28,8.86-8.22,14.9-12.22,14.9
			c-3.62,0-2.98-3.96-1.96-8.39l2.38-10.43c0.26-1.19,0.55-2.38-0.17-2.38c-0.68,0-1.87,1.28-3.58,3.49l-0.21-0.17
			c1.96-3.66,3.92-5.45,5.11-5.45c1.53,0,1.75,1.45,1.15,4l-2.6,11.24c-0.77,3.32-1.28,6.22,1.15,6.22c3.7,0,9.88-8.35,12.48-20.48
			l2.09-0.55h0.17l-3.87,18.4c-0.26,1.19-0.51,2.39,0.26,2.39c0.64,0,2.04-1.19,4.43-4.43L208.63,105.92z"/>
		<path d="M217.52,90.84l-3.41,15.93c-0.34,1.62-0.43,3.41,0.89,3.41c1.32,0,3.75-2,6.52-5.71l0.21,0.17
			c-2.43,4.56-6.05,7.67-8.26,7.67c-2,0-2.17-2.47-1.62-5.03l3.53-16.44h-2.26l0.08-0.34l0.64-0.26c1.75-0.68,3.24-2.3,4.77-5.96
			h0.26l-1.11,5.19h7.75l-0.81,1.36H217.52z"/>
		<path d="M231.36,90.84l-3.41,15.93c-0.34,1.62-0.43,3.41,0.89,3.41c1.32,0,3.75-2,6.52-5.71l0.21,0.17
			c-2.43,4.56-6.05,7.67-8.26,7.67c-2,0-2.17-2.47-1.62-5.03l3.53-16.44h-2.26l0.08-0.34l0.64-0.26c1.75-0.68,3.24-2.3,4.77-5.96
			h0.26l-1.11,5.19h7.75l-0.81,1.36H231.36z"/>
		<path d="M241.15,101.06c-0.3,1.32-0.47,2.64-0.47,4c0,3.92,1.45,5.62,3.92,5.62c2.77,0,5.79-2.09,8.35-5.24l0.26,0.17
			c-3.02,4.56-6.26,6.69-9.45,6.69c-3.15,0-5.37-2.09-5.37-6.73c0-7.07,5.19-16.61,13.07-16.61c2.94,0,4.09,1.28,4.09,3.02
			C255.54,95.91,249.84,98.34,241.15,101.06z M241.32,100.3c7.71-2.64,11.84-4.43,11.84-8.18c0-1.36-0.55-2.55-2.39-2.55
			C247.07,89.57,242.94,94.51,241.32,100.3z"/>
		<path d="M273,89.31l-1.19,2.64h-0.26c-0.51-0.26-0.94-0.34-1.45-0.34c-4.39,0-8.18,10.65-10.22,20.18h-2.13l3.88-18.31
			c0.26-1.19,0.51-2.38-0.26-2.38c-0.64,0-1.83,1.28-3.53,3.49l-0.21-0.17c1.96-3.66,3.96-5.45,5.24-5.45c1.45,0,1.53,1.53,1.02,4
			l-1.92,8.94c2.34-7.07,5.66-12.95,9.33-12.95C271.85,88.97,272.45,89.01,273,89.31z"/>
		<path d="M38.75,131.88c6.05,0,10.01,3.24,10.01,8.6c0,5.49-4.09,9.03-9.58,9.03c-1.92,0-3.49-0.43-4.39-0.77v9.11
			c0,3.15,0.34,4.77,3.24,4.77v0.26h-8.69v-0.26c2.9,0,3.07-1.62,3.07-4.77v-20.95c0-3.15-0.17-4.77-3.07-4.77v-0.26H38.75z
			 M46.12,140.49c0-4.94-2.64-7.92-7.58-7.92h-2.13c-1.02,0-1.62,0.51-1.62,1.53v12.6c0,0.51,0,1.96,3.41,1.96
			C43.18,148.66,46.12,145.68,46.12,140.49z"/>
		<path d="M63.36,140.4l-0.64,2.64h-0.26c-0.85-0.38-1.58-0.6-2.3-0.6c-1.53,0-2.85,0.98-4.09,2.94v13.07
			c0,2.73,0.13,4.17,1.87,4.17v0.26h-5.88v-0.26c1.75,0,1.87-1.45,1.87-4.17v-12.6c0-2.73-0.72-3.75-2.17-4v-0.26l4.13-1.45h0.17
			v4.56c1.75-2.68,3.53-4.64,5.66-4.64C62.17,140.06,62.77,140.15,63.36,140.4z"/>
		<path d="M64.89,151.81c0-7.07,4.43-11.75,10.14-11.75c5.79,0,10.05,4.43,10.05,11.58c0,7.07-4.43,11.75-10.13,11.75
			C69.15,163.4,64.89,158.97,64.89,151.81z M82.69,151.73c0-6.35-2.94-11.07-7.75-11.07c-4.81,0-7.66,4.47-7.66,11.07
			c0,6.34,2.94,11.07,7.75,11.07C79.84,162.8,82.69,158.33,82.69,151.73z"/>
		<path d="M85.8,172.34c3.66-0.94,4.81-3.7,4.81-7.96v-18.52c0-2.73-0.72-3.75-2.17-4v-0.26l4.13-1.45h0.17v23.72
			c0,4.77-2.47,7.92-6.9,8.73L85.8,172.34z M89.2,134.27c0-1.02,0.85-1.87,1.87-1.87c1.02,0,1.87,0.85,1.87,1.87
			c0,1.02-0.85,1.87-1.87,1.87C90.05,136.14,89.2,135.29,89.2,134.27z"/>
		<path d="M114.92,158.03c-1.36,2.3-3.96,5.37-8.3,5.37c-5.32,0-8.82-4.85-8.82-11.37c0-7.11,4.6-11.97,9.71-11.97
			c4.05,0,7.58,2.98,7.37,8.26h-14.52c-0.17,0.89-0.26,1.79-0.26,2.73c0,5.75,2.64,10.73,7.5,10.73c3.24,0,5.71-1.92,7.07-3.92
			L114.92,158.03z M100.48,147.64h11.58c0.3-4.22-1.32-6.98-4.81-6.98C103.89,140.66,101.42,143.72,100.48,147.64z"/>
		<path d="M118.36,152.03c0-7.11,4.6-11.97,9.71-11.97c2.94,0,5.71,1.53,7.07,3.7l-1.32,2h-0.26c-0.94-3.15-2.6-5.11-5.49-5.11
			c-4.56,0-7.41,4.98-7.41,10.39c0,5.75,2.64,10.73,7.5,10.73c3.24,0,5.71-1.92,7.07-3.92l0.26,0.17c-1.36,2.3-3.96,5.37-8.3,5.37
			C121.86,163.4,118.36,158.54,118.36,152.03z"/>
		<path d="M151.36,159.65c-1.96,2.43-4.34,3.75-6.39,3.75c-2.98,0-4.68-1.79-4.68-5.03v-16.44h-2.21v-0.34l0.6-0.26
			c1.58-0.68,2.73-2.3,3.49-5.96h0.26v5.19h8.6l-0.51,1.36h-8.09v15.93c0,2.64,1.19,4.09,3.58,4.09c1.87,0,3.75-1.19,5.11-2.47
			L151.36,159.65z"/>
	</g>
</g>
<g>
	<text transform="matrix(1 0 0 1 -289.6509 63.2803)"><tspan x="0" y="0" style="font-family:'IvyPrestoDisplay-Thin'; font-size:36.2321px; letter-spacing:1;">The</tspan><tspan x="0" y="43.48" style="font-family:'IvyPrestoDisplay-ThinItalic'; font-size:36.2321px; letter-spacing:1;">Peanut Butter</tspan><tspan x="0" y="86.96" style="font-family:'IvyPrestoDisplay-Thin'; font-size:36.2321px; letter-spacing:1;">Project</tspan></text>
</g>
</svg>
