<?xml version="1.0" encoding="UTF-8"?>
<svg id="Layer_1" data-name="Layer 1" xmlns="http://www.w3.org/2000/svg" viewBox="0 0 300 200">
  <defs>
    <style>
      .cls-1 {
        fill: #fa5a40;
      }
    </style>
  </defs>
  <path class="cls-1" d="m50.8,35.62h-.26c-1.96-4.68-3.07-5.24-7.66-5.24h-1.79v25.29c0,3.15.17,4.77,3.07,4.77v.26h-8.52v-.26c2.9,0,3.07-1.62,3.07-4.77v-25.29h-1.79c-4.6,0-5.71.55-7.66,5.24h-.26l.51-5.92h20.78l.51,5.92Z"/>
  <path class="cls-1" d="m70.6,56.28c0,2.73.13,4.17,1.87,4.17v.26h-5.88v-.26c1.75,0,1.87-1.45,1.87-4.17v-11.24c0-3.58-1.45-5.37-4.34-5.37-2.34,0-4.6,1.19-6.69,2.94v13.67c0,2.73.13,4.17,1.87,4.17v.26h-5.88v-.26c1.75,0,1.87-1.45,1.87-4.17v-23.51c0-2.73-.72-3.75-2.17-4v-.26l4.13-1.11h.17v14.78c2.3-2.43,4.98-4.3,7.84-4.3,3.24,0,5.32,2.3,5.32,6.64v11.75Z"/>
  <path class="cls-1" d="m93,55.85c-1.36,2.3-3.96,5.37-8.3,5.37-5.32,0-8.82-4.85-8.82-11.37,0-7.11,4.6-11.97,9.71-11.97,4.05,0,7.58,2.98,7.37,8.26h-14.52c-.17.89-.26,1.79-.26,2.73,0,5.75,2.64,10.73,7.5,10.73,3.24,0,5.71-1.92,7.07-3.92l.26.17Zm-14.44-10.39h11.58c.3-4.22-1.32-6.98-4.81-6.98s-5.83,3.07-6.77,6.98Z"/>
  <path class="cls-1" d="m42.54,80.79c5.24,0,8.64,2.6,8.64,7.41,0,5.66-4.73,10.22-11.11,10.22-2.26,0-3.83-.43-4.64-.77l-1.92,9.11c-.68,3.15-.72,4.77,2.21,4.77l-.04.26h-8.69l.04-.26c2.9,0,3.41-1.62,4.09-4.77l4.43-20.95c.68-3.15.81-4.77-2.04-4.77l.04-.26h8.99Zm6.09,7.24c0-4.34-2.34-6.56-6.43-6.56h-1.7c-.98,0-1.75.51-1.96,1.53l-2.68,12.6c-.13.6-.21,1.96,3.28,1.96,6.22,0,9.5-4.39,9.5-9.54Z"/>
  <path class="cls-1" d="m53.4,101.06c-.3,1.32-.47,2.64-.47,4,0,3.92,1.45,5.62,3.92,5.62,2.77,0,5.79-2.09,8.35-5.24l.26.17c-3.02,4.56-6.26,6.69-9.45,6.69s-5.37-2.09-5.37-6.73c0-7.07,5.19-16.61,13.07-16.61,2.94,0,4.09,1.28,4.09,3.02,0,3.92-5.71,6.35-14.39,9.07Zm.17-.77c7.71-2.64,11.84-4.43,11.84-8.18,0-1.36-.55-2.55-2.39-2.55-3.7,0-7.84,4.94-9.45,10.73Z"/>
  <path class="cls-1" d="m89.55,105.92c-2.13,4-4.39,6.39-6.09,6.39s-1.41-2.3-1.02-4l1.32-6.17c-2.64,6.56-6.86,10.18-10.39,10.18-2.64,0-4.17-2.09-4.17-6,0-7.62,5.75-17.33,13.33-17.33,1.83,0,3.28.55,4.09,1.79l1.79-1.53h.26l-3.96,18.57c-.13.6-.47,2.17.3,2.17.85,0,2.68-1.96,4.34-4.22l.21.17Zm-4.51-9.79c.13-.6.21-1.15.21-2,0-2.55-.72-4.56-3.32-4.56-5.41,0-10.35,8.77-10.35,15.88,0,3.41,1.15,5.32,3.15,5.32,3.53,0,8.56-6.17,10.31-14.65Z"/>
  <path class="cls-1" d="m112.96,105.92c-2.13,4-4.43,6.39-6,6.39s-1.75-1.45-1.15-4l2.6-11.24c.77-3.32,1.28-6.22-1.15-6.22-4.26,0-10.22,9.84-12.6,20.95h-2.13l3.88-18.31c.26-1.19.51-2.38-.26-2.38-.64,0-1.83,1.28-3.53,3.49l-.21-.17c1.96-3.66,3.96-5.45,5.24-5.45,1.45,0,1.53,1.53,1.02,4l-2.34,10.9c3.28-8.86,8.22-14.9,12.22-14.9,3.62,0,2.98,3.96,1.96,8.39l-2.38,10.43c-.26,1.19-.55,2.39.17,2.39.64,0,2.09-1.19,4.47-4.43l.21.17Z"/>
  <path class="cls-1" d="m136.34,105.92c-2.13,4-4.43,6.39-6.13,6.39-1.45,0-1.53-1.53-1.02-4l2.34-10.9c-3.28,8.86-8.22,14.9-12.22,14.9-3.62,0-2.98-3.96-1.96-8.39l2.38-10.43c.26-1.19.55-2.38-.17-2.38-.68,0-1.87,1.28-3.58,3.49l-.21-.17c1.96-3.66,3.92-5.45,5.11-5.45,1.53,0,1.75,1.45,1.15,4l-2.6,11.24c-.77,3.32-1.28,6.22,1.15,6.22,3.7,0,9.88-8.35,12.48-20.48l2.09-.55h.17l-3.87,18.4c-.26,1.19-.51,2.39.26,2.39.64,0,2.04-1.19,4.43-4.43l.21.17Z"/>
  <path class="cls-1" d="m145.23,90.84l-3.41,15.93c-.34,1.62-.43,3.41.89,3.41s3.75-2,6.52-5.71l.21.17c-2.43,4.56-6.05,7.67-8.26,7.67-2,0-2.17-2.47-1.62-5.03l3.53-16.44h-2.26l.08-.34.64-.26c1.75-.68,3.24-2.3,4.77-5.96h.26l-1.11,5.19h7.75l-.81,1.36h-7.2Z"/>
  <path class="cls-1" d="m177.16,95.7c3.83.68,6.81,3.45,6.81,7.07,0,6.17-6.47,9.03-13.37,9.03h-10.13l.04-.26c2.9,0,3.41-1.62,4.09-4.77l4.43-20.95c.72-3.24.77-4.77-2.04-4.77l.04-.26h9.45c5.88,0,9.2,2.55,9.2,6.39,0,4.68-3.83,7.28-8.52,8.43v.08Zm4.13,6.73c0-3.79-2.94-6.43-8.09-6.43h-3.92l-2.64,12.39c-.3,1.45-.6,2.73,3.7,2.73,6.52,0,10.94-2.85,10.94-8.69Zm-11.88-7.11h3.79c6.05,0,9.75-2.51,9.75-7.92,0-3.62-2.47-5.92-6.77-5.92h-2.21c-1.02,0-1.75.51-1.96,1.53l-2.6,12.31Z"/>
  <path class="cls-1" d="m208.63,105.92c-2.13,4-4.43,6.39-6.13,6.39-1.45,0-1.53-1.53-1.02-4l2.34-10.9c-3.28,8.86-8.22,14.9-12.22,14.9-3.62,0-2.98-3.96-1.96-8.39l2.38-10.43c.26-1.19.55-2.38-.17-2.38-.68,0-1.87,1.28-3.58,3.49l-.21-.17c1.96-3.66,3.92-5.45,5.11-5.45,1.53,0,1.75,1.45,1.15,4l-2.6,11.24c-.77,3.32-1.28,6.22,1.15,6.22,3.7,0,9.88-8.35,12.48-20.48l2.09-.55h.17l-3.87,18.4c-.26,1.19-.51,2.39.26,2.39.64,0,2.04-1.19,4.43-4.43l.21.17Z"/>
  <path class="cls-1" d="m217.52,90.84l-3.41,15.93c-.34,1.62-.43,3.41.89,3.41s3.75-2,6.52-5.71l.21.17c-2.43,4.56-6.05,7.67-8.26,7.67-2,0-2.17-2.47-1.62-5.03l3.53-16.44h-2.26l.08-.34.64-.26c1.75-.68,3.24-2.3,4.77-5.96h.26l-1.11,5.19h7.75l-.81,1.36h-7.2Z"/>
  <path class="cls-1" d="m231.36,90.84l-3.41,15.93c-.34,1.62-.43,3.41.89,3.41s3.75-2,6.52-5.71l.21.17c-2.43,4.56-6.05,7.67-8.26,7.67-2,0-2.17-2.47-1.62-5.03l3.53-16.44h-2.26l.08-.34.64-.26c1.75-.68,3.24-2.3,4.77-5.96h.26l-1.11,5.19h7.75l-.81,1.36h-7.2Z"/>
  <path class="cls-1" d="m241.15,101.06c-.3,1.32-.47,2.64-.47,4,0,3.92,1.45,5.62,3.92,5.62,2.77,0,5.79-2.09,8.35-5.24l.26.17c-3.02,4.56-6.26,6.69-9.45,6.69s-5.37-2.09-5.37-6.73c0-7.07,5.19-16.61,13.07-16.61,2.94,0,4.09,1.28,4.09,3.02,0,3.92-5.71,6.35-14.39,9.07Zm.17-.77c7.71-2.64,11.84-4.43,11.84-8.18,0-1.36-.55-2.55-2.39-2.55-3.7,0-7.84,4.94-9.45,10.73Z"/>
  <path class="cls-1" d="m273,89.31l-1.19,2.64h-.26c-.51-.26-.94-.34-1.45-.34-4.39,0-8.18,10.65-10.22,20.18h-2.13l3.88-18.31c.26-1.19.51-2.38-.26-2.38-.64,0-1.83,1.28-3.53,3.49l-.21-.17c1.96-3.66,3.96-5.45,5.24-5.45,1.45,0,1.53,1.53,1.02,4l-1.92,8.94c2.34-7.07,5.66-12.95,9.33-12.95.55,0,1.15.04,1.7.34Z"/>
  <path class="cls-1" d="m38.75,131.88c6.05,0,10.01,3.24,10.01,8.6s-4.09,9.03-9.58,9.03c-1.92,0-3.49-.43-4.39-.77v9.11c0,3.15.34,4.77,3.24,4.77v.26h-8.69v-.26c2.9,0,3.07-1.62,3.07-4.77v-20.95c0-3.15-.17-4.77-3.07-4.77v-.26h9.41Zm7.37,8.6c0-4.94-2.64-7.92-7.58-7.92h-2.13c-1.02,0-1.62.51-1.62,1.53v12.6c0,.51,0,1.96,3.41,1.96,4.98,0,7.92-2.98,7.92-8.18Z"/>
  <path class="cls-1" d="m63.36,140.4l-.64,2.64h-.26c-.85-.38-1.58-.6-2.3-.6-1.53,0-2.85.98-4.09,2.94v13.07c0,2.73.13,4.17,1.87,4.17v.26h-5.88v-.26c1.75,0,1.87-1.45,1.87-4.17v-12.6c0-2.73-.72-3.75-2.17-4v-.26l4.13-1.45h.17v4.56c1.75-2.68,3.53-4.64,5.66-4.64.43,0,1.02.08,1.62.34Z"/>
  <path class="cls-1" d="m64.89,151.81c0-7.07,4.43-11.75,10.14-11.75s10.05,4.43,10.05,11.58-4.43,11.75-10.13,11.75-10.05-4.43-10.05-11.58Zm17.8-.08c0-6.35-2.94-11.07-7.75-11.07s-7.66,4.47-7.66,11.07,2.94,11.07,7.75,11.07,7.66-4.47,7.66-11.07Z"/>
  <path class="cls-1" d="m85.8,172.34c3.66-.94,4.81-3.7,4.81-7.96v-18.52c0-2.73-.72-3.75-2.17-4v-.26l4.13-1.45h.17v23.72c0,4.77-2.47,7.92-6.9,8.73l-.04-.26Zm3.41-38.07c0-1.02.85-1.87,1.87-1.87s1.87.85,1.87,1.87-.85,1.87-1.87,1.87-1.87-.85-1.87-1.87Z"/>
  <path class="cls-1" d="m114.92,158.03c-1.36,2.3-3.96,5.37-8.3,5.37-5.32,0-8.82-4.85-8.82-11.37,0-7.11,4.6-11.97,9.71-11.97,4.05,0,7.58,2.98,7.37,8.26h-14.52c-.17.89-.26,1.79-.26,2.73,0,5.75,2.64,10.73,7.5,10.73,3.24,0,5.71-1.92,7.07-3.92l.26.17Zm-14.44-10.39h11.58c.3-4.22-1.32-6.98-4.81-6.98s-5.83,3.07-6.77,6.98Z"/>
  <path class="cls-1" d="m118.36,152.03c0-7.11,4.6-11.97,9.71-11.97,2.94,0,5.71,1.53,7.07,3.7l-1.32,2h-.26c-.94-3.15-2.6-5.11-5.49-5.11-4.56,0-7.41,4.98-7.41,10.39,0,5.75,2.64,10.73,7.5,10.73,3.24,0,5.71-1.92,7.07-3.92l.26.17c-1.36,2.3-3.96,5.37-8.3,5.37-5.32,0-8.82-4.85-8.82-11.37Z"/>
  <path class="cls-1" d="m151.36,159.65c-1.96,2.43-4.34,3.75-6.39,3.75-2.98,0-4.68-1.79-4.68-5.03v-16.44h-2.21v-.34l.6-.26c1.58-.68,2.73-2.3,3.49-5.96h.26v5.19h8.6l-.51,1.36h-8.09v15.93c0,2.64,1.19,4.09,3.58,4.09,1.87,0,3.75-1.19,5.11-2.47l.26.17Z"/>
</svg>